<?xml version="1.0" encoding="UTF-8"?>
<svg id="_レイヤー_1" data-name="レイヤー 1" xmlns="http://www.w3.org/2000/svg" viewBox="0 0 400 225">
  <defs>
    <style>
      .cls-1 {
        fill: #e4e4e4;
      }

      .cls-2 {
        fill: #01193f;
      }

      .cls-3 {
        fill: #c3cfd8;
      }

      .cls-4 {
        fill: #fff;
      }

      .cls-5 {
        fill: #082245;
      }
    </style>
  </defs>
  <rect class="cls-4" x="-.56" width="400" height="225"/>
  <g>
    <path class="cls-3" d="M242.65,81.41l1.76-1.01,4.47-2.58-4.47-2.58-3.74-2.16-6.23,3.6,8.22,4.74"/>
    <path class="cls-3" d="M187.78,96.79v55.01l5.65,3.27v-54.69l-5.65-3.59"/>
    <path class="cls-2" d="M241.08,117.12l-2.99,1.73-1.18.68-9.17,5.3-12.72,7.34-5.66,3.27v-4.7l5.66-3.27,12.72-7.34,9.17-5.29,1.18-.68,2.99-1.73v4.69ZM241.08,126.51l-2.99,1.73-1.18.68-9.17,5.3-12.72,7.34-5.66,3.27v-4.7l5.66-3.27,12.72-7.34,9.17-5.3,1.18-.68,2.99-1.73v4.7ZM209.36,120.56l5.66-3.27,12.72-7.34,3.17-1.83v4.7l-3.17,1.83-12.72,7.34-5.66,3.27v-4.7ZM209.36,111.17l5.66-3.27,12.72-7.34,3.17-1.83v4.7l-3.17,1.83-12.72,7.34-5.66,3.27v-4.7ZM244.43,80.33l-1.76,1.01-13.7,7.91-18.99,10.96-8.45,4.88v54.7l47.36-27.35v-54.69l-4.47,2.58"/>
    <path class="cls-1" d="M234.83,69.67l-47.08,27.18,5.65,3.59v-.07l41.07-23.71,6.23-3.6-5.87-3.39"/>
    <path class="cls-3" d="M222.76,70.01l1.76-1.01,4.47-2.58-4.47-2.58-3.74-2.16-6.23,3.6,8.22,4.75"/>
    <path class="cls-3" d="M167.89,85.39v54.93l5.65,3.27v-54.61l-5.65-3.59"/>
    <path class="cls-2" d="M186.35,96.12l42.66-24.63v-5.14l-47.36,27.35v54.69l4.71,2.64v-54.9"/>
    <path class="cls-1" d="M214.94,58.27l-47.08,27.18,5.65,3.59v-.07l47.3-27.31-5.87-3.39"/>
    <path class="cls-3" d="M210.03,55.12l-4.47-2.58-3.75-2.16-6.23,3.6,8.22,4.74,1.76-1.01,4.47-2.58"/>
    <path class="cls-3" d="M148.94,129.37l5.65,3.26v-54.95l-5.65-3.59v55.28"/>
    <path class="cls-2" d="M166.46,92.23v-7.52l12.91-7.46,27.94-16.13,1.33-.77,1.4-.81v-4.49l-4.47,2.58-1.76,1.01-28.24,16.31-12.9,7.44v54.96l2.38,1.37,1.4.81v-47.31"/>
    <path class="cls-1" d="M195.98,46.98l-47.08,27.18,5.65,3.59v-.08l41.07-23.71,6.23-3.6-5.87-3.39"/>
  </g>
  <g id="text-logo">
    <g id="text-logo-path-0">
      <path class="cls-5" d="M149.44,172.48l4.06,22.7h6.47l4.05-22.7h-3.98l-2.83,19.45h-1.13l-2.85-19.45h-3.8ZM172.01,195.17h12.57v-2.83h-9.4v-4.47h9.32v-10.53h-12.49v17.83ZM175.18,184.96v-4.71h6.39v4.71h-6.39ZM194.17,195.17h12.23v-2.83h-9.07v-12.05h6.39v3.54h3.01v-6.5h-12.57v17.83ZM216.33,180.17h3.64v15h7.3v-2.83h-4.29v-12.17h4.29v-2.83h-4.29v-5.26h-3.01v5.26h-3.64v2.83ZM236.87,180.17h9.4v4.48h-9.32v10.53h12.49v-17.83h-12.57v2.83ZM239.86,192.27v-4.71h6.42v4.71h-6.42Z"/>
    </g>
  </g>
</svg>